<svg xmlns="http://www.w3.org/2000/svg" width="44" height="63" viewBox="0 0 44 63" fill="#2ec4b6"><path d="M22.1408 62.5943C27.9331 62.5943 33.4882 60.2933 37.584 56.1975C41.6798 52.1017 43.9808 46.5467 43.9808 40.7543V22.0343C43.9808 16.242 41.6798 10.6869 37.584 6.59112C33.4882 2.49533 27.9331 0.194336 22.1408 0.194336C16.3485 0.194336 10.7934 2.49533 6.69757 6.59112C2.60177 10.6869 0.300781 16.242 0.300781 22.0343V40.7543C0.300781 46.5467 2.60177 52.1017 6.69757 56.1975C10.7934 60.2933 16.3485 62.5943 22.1408 62.5943ZM3.42078 22.0343C3.42078 17.0695 5.39306 12.308 8.90374 8.7973C12.4144 5.28662 17.1759 3.31434 22.1408 3.31434C27.1056 3.31434 31.8671 5.28662 35.3778 8.7973C38.8885 12.308 40.8608 17.0695 40.8608 22.0343V40.7543C40.8608 45.7192 38.8885 50.4807 35.3778 53.9914C31.8671 57.5021 27.1056 59.4743 22.1408 59.4743C17.1759 59.4743 12.4144 57.5021 8.90374 53.9914C5.39306 50.4807 3.42078 45.7192 3.42078 40.7543V22.0343Z" ></path><path d="M20.5795 30.6142H20.7199L21.0319 30.9418C21.1769 31.088 21.3494 31.2041 21.5395 31.2833C21.7296 31.3625 21.9335 31.4032 22.1395 31.4032C22.3454 31.4032 22.5493 31.3625 22.7394 31.2833C22.9295 31.2041 23.102 31.088 23.2471 30.9418L23.5591 30.6142H23.6995V30.4738L32.6071 21.5818L30.3919 19.3666L23.6995 26.0746V9.5542H20.5795V26.0746L13.8871 19.3666L11.6719 21.5818L20.5795 30.4738V30.6142Z" ></path><defs><linearGradient id="paint0_linear_110_4549" x1="48.7269" y1="-7.15778" x2="27.2454" y2="76.8514" gradientUnits="userSpaceOnUse"><stop stop-color="#2E7CD1"></stop><stop offset="1" stop-color="#215996"></stop></linearGradient><linearGradient id="paint1_linear_110_4549" x1="34.8818" y1="6.97989" x2="29.225" y2="37.2618" gradientUnits="userSpaceOnUse"><stop stop-color="#2E7CD1"></stop><stop offset="1" stop-color="#215996"></stop></linearGradient></defs></svg>