<?xml version="1.0" standalone="no"?>
<!DOCTYPE svg PUBLIC "-//W3C//DTD SVG 20010904//EN"
 "http://www.w3.org/TR/2001/REC-SVG-20010904/DTD/svg10.dtd">
<svg version="1.0" xmlns="http://www.w3.org/2000/svg"
 width="317.000000pt" height="217.000000pt" viewBox="0 0 317.000000 217.000000"
 preserveAspectRatio="xMidYMid meet">

<g transform="translate(0.000000,217.000000) scale(0.100000,-0.100000)"
fill="#000000" stroke="none">
<path d="M780 2021 c-41 -10 -90 -24 -108 -32 l-33 -14 54 -53 54 -54 82 26
c45 14 101 29 124 32 29 5 53 17 79 42 35 34 37 37 21 54 -13 15 -31 18 -107
17 -50 0 -125 -9 -166 -18z"/>
<path d="M1050 2036 c0 -2 6 -9 14 -15 10 -9 16 -8 26 4 11 13 8 15 -14 15
-14 0 -26 -2 -26 -4z"/>
<path d="M1066 1989 l-51 -49 59 0 60 0 -30 33 -29 32 35 -31 c32 -28 43 -32
120 -38 93 -7 198 -32 274 -65 27 -12 51 -20 53 -17 2 2 -15 18 -40 35 -35 23
-47 27 -57 18 -10 -9 -11 -9 -6 0 4 7 -3 18 -16 27 -38 24 -178 75 -252 90
l-69 14 -51 -49z"/>
<path d="M570 1950 c-19 -10 -72 -56 -118 -102 l-82 -84 44 -43 45 -44 48 39
c56 46 107 80 180 120 l53 29 -52 52 c-29 29 -59 53 -68 53 -8 -1 -31 -9 -50
-20z"/>
<path d="M423 1861 c-80 -56 -208 -189 -242 -253 -21 -38 -13 -32 77 56 85 84
99 102 89 115 -10 14 -10 14 4 4 13 -10 26 -1 84 57 38 39 67 70 64 70 -3 0
-37 -22 -76 -49z"/>
<path d="M250 1645 l-115 -115 61 -61 61 -61 47 76 c26 42 70 101 98 132 l51
55 -44 45 -44 44 -115 -115z"/>
<path d="M97 1453 c-16 -36 -40 -114 -53 -172 l-24 -106 55 -54 c64 -65 78
-61 95 27 14 69 57 199 75 228 12 19 9 26 -49 83 -34 33 -64 61 -66 61 -3 0
-18 -30 -33 -67z"/>
<path d="M1465 1268 c-2 -7 -19 -102 -38 -210 l-34 -198 37 0 38 0 17 93 c9
50 18 100 21 110 11 37 75 46 88 12 3 -8 -1 -52 -9 -97 -21 -118 -21 -118 20
-118 19 0 35 1 35 3 0 1 7 40 15 87 22 122 20 156 -10 185 -27 28 -71 33 -101
10 -29 -22 -33 -18 -24 23 4 20 11 54 14 75 l7 37 -36 0 c-20 0 -38 -6 -40
-12z"/>
<path d="M596 1238 c-12 -45 -8 -48 49 -48 42 0 55 -4 55 -15 0 -8 -11 -79
-25 -157 -14 -78 -25 -146 -25 -150 0 -5 17 -8 38 -8 l39 0 28 165 28 165 58
0 c59 0 69 7 69 51 0 18 -9 19 -154 19 -151 0 -154 0 -160 -22z"/>
<path d="M2280 1181 c0 -32 -11 -51 -30 -51 -10 0 -20 -10 -24 -22 -9 -35 -8
-38 15 -38 18 0 20 -4 15 -27 -3 -16 -9 -62 -12 -104 -7 -75 -6 -77 19 -94 14
-9 38 -15 54 -13 23 2 29 8 31 36 3 27 0 32 -17 32 -24 0 -24 1 -8 95 11 64
14 70 39 73 20 2 27 10 30 33 4 25 1 29 -20 29 -22 0 -24 3 -18 35 l7 35 -41
0 c-33 0 -40 -3 -40 -19z"/>
<path d="M2996 1184 c-3 -9 -6 -24 -6 -35 0 -14 -7 -19 -25 -19 -21 0 -25 -5
-25 -30 0 -22 5 -30 18 -30 17 0 18 -4 3 -95 l-15 -95 24 -25 c19 -20 32 -25
60 -23 31 3 35 6 38 36 3 27 0 32 -17 32 -25 0 -26 15 -10 107 10 56 14 63 34
63 15 0 25 8 29 23 9 34 8 37 -18 37 -23 0 -24 3 -19 35 6 34 5 35 -30 35 -23
0 -37 -6 -41 -16z"/>
<path d="M975 1151 c-28 -13 -72 -61 -84 -94 -15 -40 -14 -113 4 -146 16 -31
69 -61 109 -61 37 0 95 26 103 45 3 9 -1 23 -9 32 -14 13 -19 13 -47 -1 -36
-19 -77 -12 -91 14 -19 35 -11 39 83 42 l92 3 3 30 c5 40 -13 98 -38 120 -22
20 -95 29 -125 16z m79 -67 c9 -8 16 -24 16 -35 0 -16 -7 -19 -55 -19 -61 0
-67 9 -30 45 28 29 47 31 69 9z"/>
<path d="M1230 1142 c-72 -38 -104 -167 -60 -240 40 -65 131 -69 187 -8 42 46
43 66 2 66 -21 0 -40 -9 -55 -25 -27 -29 -46 -31 -68 -9 -19 18 -20 53 -5 107
18 65 79 84 100 31 6 -18 16 -24 38 -24 37 0 40 6 29 48 -17 64 -99 90 -168
54z"/>
<path d="M20 1061 c0 -50 4 -91 8 -91 4 0 27 20 51 44 l44 45 -35 33 c-72 69
-68 71 -68 -31z"/>
<path d="M2470 1112 c-44 -22 -77 -71 -86 -128 -17 -119 85 -198 190 -147 41
19 48 32 31 56 -11 15 -15 15 -53 0 -38 -15 -43 -15 -67 1 -14 9 -25 25 -25
36 0 18 7 20 90 20 l90 0 0 56 c0 50 -3 59 -34 90 -39 39 -80 44 -136 16z m81
-52 c11 -6 19 -21 19 -35 0 -24 -3 -25 -55 -25 -52 0 -55 1 -45 19 9 17 48 51
58 51 2 0 12 -5 23 -10z"/>
<path d="M2685 1118 c-6 -22 -45 -253 -45 -271 0 -13 9 -17 34 -17 38 0 31
-18 66 164 12 60 43 86 81 66 23 -13 23 -13 4 -120 -20 -113 -21 -110 20 -110
28 0 36 4 40 23 14 67 25 146 25 188 0 39 -4 51 -26 68 -31 25 -72 27 -100 6
-25 -19 -38 -19 -30 0 4 12 -3 15 -30 15 -19 0 -36 -6 -39 -12z"/>
<path d="M145 1070 c-3 -5 -3 -15 1 -22 5 -7 2 -9 -8 -6 -10 4 -32 -11 -63
-42 l-47 -48 12 -58 c16 -81 37 -147 72 -223 l29 -64 30 29 c22 21 28 34 24
49 -25 81 -37 166 -39 272 0 68 -2 123 -3 123 -1 0 -5 -4 -8 -10z"/>
<path d="M750 682 c0 -13 94 -133 139 -176 42 -42 52 -47 66 -36 22 18 20 23
-29 58 -24 17 -73 60 -110 95 -36 36 -66 62 -66 59z"/>
<path d="M173 625 c-13 -12 -23 -25 -23 -29 0 -10 74 -108 93 -125 9 -7 15
-16 12 -20 -2 -4 18 -30 45 -56 62 -61 60 -40 -8 72 -27 46 -58 105 -68 133
-10 27 -20 50 -23 49 -4 -1 -16 -11 -28 -24z m132 -215 c21 -22 37 -40 34 -40
-3 0 -23 18 -44 40 -21 22 -37 40 -34 40 3 0 23 -18 44 -40z"/>
<path d="M2170 490 c-14 -11 -20 -20 -14 -20 6 0 19 9 29 20 23 25 17 25 -15
0z"/>
<path d="M963 468 c-15 -16 -14 -19 8 -38 36 -31 147 -96 211 -124 l58 -26 31
31 c17 17 33 29 35 26 2 -2 -7 -14 -21 -27 -14 -13 -25 -26 -25 -30 0 -4 26
-12 58 -19 31 -7 66 -15 77 -18 13 -3 1 14 -34 50 -43 44 -65 58 -110 71 -31
9 -105 40 -164 69 -102 50 -108 52 -124 35z"/>
<path d="M2110 455 c-54 -30 -188 -85 -244 -101 l-58 -16 25 -26 25 -25 57 23
c88 36 246 142 227 154 -4 2 -18 -2 -32 -9z"/>
<path d="M1377 290 l51 -53 89 -1 c48 0 117 2 153 6 69 8 170 35 170 45 0 3
-12 17 -26 30 l-27 25 -51 -49 c-51 -48 -51 -48 -11 -4 37 40 38 43 15 38 -92
-20 -248 -17 -380 9 l-35 6 52 -52z"/>
</g>
</svg>
